<?xml version="1.0" encoding="UTF-8"?>
<svg id="Layer_2" data-name="Layer 2" xmlns="http://www.w3.org/2000/svg" viewBox="0 0 275.38 61.76">
  <defs>
    <style>
      .cls-1 {
        fill: #231f20;
        stroke: #231f20;
        stroke-miterlimit: 10;
        stroke-width: .25px;
      }

      .cls-2 {
        fill: #229799;
      }

      .cls-3 {
        fill: #f5f5f5;
      }

      .cls-4 {
        fill: #48cfcb;
      }
    </style>
  </defs>
  <g id="Layer_1-2" data-name="Layer 1">
    <g>
      <path class="cls-3" d="M108.19,44.75c-3.37,0-6.31-.7-8.82-2.1-2.51-1.4-4.46-3.38-5.85-5.95-1.38-2.57-2.08-5.56-2.08-8.99s.69-6.49,2.08-9.05c1.39-2.55,3.33-4.53,5.85-5.93,2.51-1.4,5.45-2.1,8.82-2.1,2.72,0,5.13.47,7.23,1.41,2.11.94,3.83,2.28,5.18,4.01,1.34,1.74,2.19,3.82,2.55,6.23h-7.17c-.3-1.77-1.14-3.13-2.53-4.1-1.38-.96-3.14-1.45-5.26-1.45-3.04,0-5.45.96-7.21,2.89-1.77,1.93-2.65,4.62-2.65,8.07s.88,6.11,2.65,8.05c1.77,1.94,4.17,2.91,7.21,2.91,2.12,0,3.87-.49,5.26-1.47,1.39-.98,2.23-2.35,2.53-4.12h7.17c-.35,2.42-1.2,4.5-2.55,6.26s-3.07,3.09-5.18,4.01c-2.11.92-4.52,1.39-7.23,1.39Z"/>
      <path class="cls-3" d="M136.59,44.63c-2.64,0-4.93-.52-6.89-1.57-1.96-1.05-3.46-2.53-4.52-4.44-1.06-1.92-1.59-4.18-1.59-6.79s.52-4.86,1.55-6.74c1.03-1.89,2.51-3.34,4.42-4.36,1.92-1.02,4.18-1.53,6.79-1.53s4.75.49,6.58,1.47c1.83.98,3.24,2.38,4.22,4.2.98,1.82,1.47,3.99,1.47,6.52v2.28h-18.54c.27,1.82.96,3.21,2.08,4.16,1.11.95,2.58,1.43,4.4,1.43,1.44,0,2.58-.24,3.42-.73.84-.49,1.44-1.24,1.79-2.24h6.76c-.54,2.61-1.86,4.65-3.95,6.13-2.09,1.48-4.75,2.22-7.99,2.22ZM130.23,29.19h11.9c-.22-1.55-.82-2.71-1.79-3.48-.98-.77-2.3-1.16-3.95-1.16s-3.01.39-4.05,1.18c-1.05.79-1.75,1.94-2.1,3.46Z"/>
      <path class="cls-3" d="M152.93,44.14v-17.77h-3.34v-6.68h6.85v3.99h1.71c.95-1.41,2.15-2.51,3.59-3.28s3.23-1.16,5.38-1.16c3.4,0,6.02.93,7.89,2.79,1.86,1.86,2.79,4.35,2.79,7.48v14.63h-6.76v-13.37c0-1.79-.48-3.16-1.45-4.1-.96-.94-2.37-1.41-4.22-1.41s-3.25.47-4.22,1.41c-.96.94-1.45,2.3-1.45,4.1v13.37h-6.76Z"/>
      <path class="cls-3" d="M189.24,44.14c-1.74,0-3.09-.44-4.05-1.32-.96-.88-1.45-2.23-1.45-4.05v-13.77h-4.2v-5.3h4.28v-7.33h6.6v7.33h5.66v5.3h-5.58v13.85h6.15v5.3h-7.42Z"/>
      <path class="cls-3" d="M200.97,44.14v-17.77h-3.34v-6.68h6.85v4.81h1.71c.65-1.71,1.68-2.99,3.1-3.83,1.41-.84,3-1.26,4.77-1.26h2.08v5.87h-2.36c-2.12,0-3.67.6-4.67,1.79-.99,1.2-1.49,2.77-1.49,4.73v12.35h-6.64Z"/>
      <path class="cls-3" d="M213.44,44.14l13.98-33.01h7.09l13.81,33.01h-7.09l-3.38-8.07h-14.1l-3.46,8.07h-6.85ZM225.91,30.29h10.07l-4.93-11.9h-.2l-4.93,11.9Z"/>
      <path class="cls-3" d="M250.57,44.14V11.14h6.89v26.98h16.99v6.03h-23.88Z"/>
    </g>
    <g>
      <path class="cls-3" d="M28.16,49.51l12.24,12.25h16.26l12.25-12.25c1.5-1.5.44-4.06-1.68-4.06H29.84c-2.12,0-3.18,2.56-1.68,4.06Z"/>
      <path class="cls-4" d="M19.1,4.06l20.38,20.4h8.15l20.4-20.4c1.5-1.5.44-4.06-1.68-4.06H20.78c-2.12,0-3.18,2.56-1.68,4.06Z"/>
      <line class="cls-1" x1="29.24" y1="34.21" x2="29.24" y2="34.21"/>
      <path class="cls-2" d="M21.11,42.36l12.21-12.25c1.49-1.5.43-4.05-1.68-4.05H2.38c-2.12,0-3.18,2.56-1.68,4.05l12.21,12.25h8.2"/>
    </g>
  </g>
</svg>