<svg width="120" height="120" viewBox="0 0 120 120" fill="none" xmlns="http://www.w3.org/2000/svg">
  <rect width="120" height="120" rx="24" fill="url(#gradient4)"/>
  <path d="M60 25C70 25 80 35 80 50C80 65 70 75 60 75C50 75 40 65 40 50C40 35 50 25 60 25Z" stroke="white" stroke-width="2" fill="none"/>
  <ellipse cx="60" cy="50" rx="15" ry="8" stroke="white" stroke-width="2" fill="none"/>
  <path d="M45 50C45 55 52 60 60 60C68 60 75 55 75 50" stroke="white" stroke-width="2" fill="none"/>
  <circle cx="55" cy="45" r="2" fill="white"/>
  <circle cx="65" cy="45" r="2" fill="white"/>
  <path d="M30 80L35 85L40 80L45 85L50 80M70 80L75 85L80 80L85 85L90 80" stroke="white" stroke-width="2" stroke-linecap="round" stroke-linejoin="round"/>
  <circle cx="35" cy="95" r="3" fill="white"/>
  <circle cx="60" cy="95" r="4" fill="white"/>
  <circle cx="85" cy="95" r="3" fill="white"/>
  <text x="60" y="110" fill="white" font-family="system-ui" font-size="12" font-weight="bold" text-anchor="middle">DNA</text>
  <defs>
    <linearGradient id="gradient4" x1="0%" y1="0%" x2="100%" y2="100%">
      <stop offset="0%" style="stop-color:#43e97b"/>
      <stop offset="100%" style="stop-color:#38f9d7"/>
    </linearGradient>
  </defs>
</svg>
